<?xml version="1.0" encoding="iso-8859-1"?>
<!-- Generator: Adobe Illustrator 19.0.0, SVG Export Plug-In . SVG Version: 6.00 Build 0)  -->
<svg version="1.1" id="Layer_1" xmlns="http://www.w3.org/2000/svg" xmlns:xlink="http://www.w3.org/1999/xlink" x="0px" y="0px"
	 viewBox="0 0 512.069 512.069" style="enable-background:new 0 0 512.069 512.069;" xml:space="preserve">
<g transform="translate(1)">
	<polygon style="fill:#556080;" points="127.035,384.052 383.035,384.052 383.035,128.052 127.035,128.052 	"/>
	<polygon style="fill:#434C6D;" points="127.035,128.052 7.568,128.052 7.568,503.519 127.035,384.052 	"/>
	<polygon style="fill:#7383BF;" points="383.035,128.052 502.501,8.585 127.035,8.585 127.035,128.052 	"/>
	<polygon style="fill:#00269B;" points="127.035,8.585 7.568,128.052 127.035,128.052 	"/>
	<polygon style="fill:#001656;" points="127.035,384.052 7.568,503.519 383.035,503.519 383.035,384.052 	"/>
	<polygon style="fill:#434C6D;" points="383.035,128.052 383.035,384.052 502.501,384.052 502.501,8.585 	"/>
	<polygon style="fill:#001F6D;" points="383.035,503.519 502.501,384.052 383.035,384.052 	"/>
	<path d="M383.035,512.052H7.568c-5.12,0-8.533-3.413-8.533-8.533V128.052c0-5.12,3.413-8.533,8.533-8.533h375.467
		c5.12,0,8.533,3.413,8.533,8.533v375.467C391.568,508.639,388.155,512.052,383.035,512.052z M16.101,494.985h358.4v-358.4h-358.4
		V494.985z"/>
	<path d="M135.568,392.585h-8.533c-5.12,0-8.533-3.413-8.533-8.533v-8.533c0-5.12,3.413-8.533,8.533-8.533s8.533,3.413,8.533,8.533
		c5.12,0,8.533,3.413,8.533,8.533S140.688,392.585,135.568,392.585z"/>
	<path d="M340.368,392.585h-17.067c-5.12,0-8.533-3.413-8.533-8.533s3.413-8.533,8.533-8.533h17.067c5.12,0,8.533,3.413,8.533,8.533
		S345.488,392.585,340.368,392.585z M289.168,392.585h-17.067c-5.12,0-8.533-3.413-8.533-8.533s3.413-8.533,8.533-8.533h17.067
		c5.12,0,8.533,3.413,8.533,8.533S294.288,392.585,289.168,392.585z M237.968,392.585h-17.067c-5.12,0-8.533-3.413-8.533-8.533
		s3.413-8.533,8.533-8.533h17.067c5.12,0,8.533,3.413,8.533,8.533S243.088,392.585,237.968,392.585z M186.768,392.585h-17.067
		c-5.12,0-8.533-3.413-8.533-8.533s3.413-8.533,8.533-8.533h17.067c5.12,0,8.533,3.413,8.533,8.533S191.888,392.585,186.768,392.585
		z"/>
	<path d="M383.035,392.585h-8.533c-5.12,0-8.533-3.413-8.533-8.533s3.413-8.533,8.533-8.533c0-5.12,3.413-8.533,8.533-8.533
		c5.12,0,8.533,3.413,8.533,8.533v8.533C391.568,389.172,388.155,392.585,383.035,392.585z"/>
	<path d="M383.035,349.919c-5.12,0-8.533-3.413-8.533-8.533v-17.067c0-5.12,3.413-8.533,8.533-8.533c5.12,0,8.533,3.413,8.533,8.533
		v17.067C391.568,346.505,388.155,349.919,383.035,349.919z M383.035,298.719c-5.12,0-8.533-3.413-8.533-8.533v-17.067
		c0-5.12,3.413-8.533,8.533-8.533c5.12,0,8.533,3.413,8.533,8.533v17.067C391.568,295.305,388.155,298.719,383.035,298.719z
		 M383.035,247.519c-5.12,0-8.533-3.413-8.533-8.533v-17.067c0-5.12,3.413-8.533,8.533-8.533c5.12,0,8.533,3.413,8.533,8.533v17.067
		C391.568,244.105,388.155,247.519,383.035,247.519z M383.035,196.319c-5.12,0-8.533-3.413-8.533-8.533v-17.067
		c0-5.12,3.413-8.533,8.533-8.533c5.12,0,8.533,3.413,8.533,8.533v17.067C391.568,192.905,388.155,196.319,383.035,196.319z"/>
	<path d="M383.035,145.119c-5.12,0-8.533-3.413-8.533-8.533c-5.12,0-8.533-3.413-8.533-8.533c0-5.12,3.413-8.533,8.533-8.533h8.533
		c5.12,0,8.533,3.413,8.533,8.533v8.533C391.568,141.705,388.155,145.119,383.035,145.119z"/>
	<path d="M340.368,136.585h-17.067c-5.12,0-8.533-3.413-8.533-8.533c0-5.12,3.413-8.533,8.533-8.533h17.067
		c5.12,0,8.533,3.413,8.533,8.533C348.901,133.172,345.488,136.585,340.368,136.585z M289.168,136.585h-17.067
		c-5.12,0-8.533-3.413-8.533-8.533c0-5.12,3.413-8.533,8.533-8.533h17.067c5.12,0,8.533,3.413,8.533,8.533
		C297.701,133.172,294.288,136.585,289.168,136.585z M237.968,136.585h-17.067c-5.12,0-8.533-3.413-8.533-8.533
		c0-5.12,3.413-8.533,8.533-8.533h17.067c5.12,0,8.533,3.413,8.533,8.533C246.501,133.172,243.088,136.585,237.968,136.585z
		 M186.768,136.585h-17.067c-5.12,0-8.533-3.413-8.533-8.533c0-5.12,3.413-8.533,8.533-8.533h17.067c5.12,0,8.533,3.413,8.533,8.533
		C195.301,133.172,191.888,136.585,186.768,136.585z"/>
	<path d="M127.035,145.119c-5.12,0-8.533-3.413-8.533-8.533v-8.533c0-5.12,3.413-8.533,8.533-8.533h8.533
		c5.12,0,8.533,3.413,8.533,8.533c0,5.12-3.413,8.533-8.533,8.533C135.568,141.705,132.155,145.119,127.035,145.119z"/>
	<path d="M127.035,349.919c-5.12,0-8.533-3.413-8.533-8.533v-17.067c0-5.12,3.413-8.533,8.533-8.533s8.533,3.413,8.533,8.533v17.067
		C135.568,346.505,132.155,349.919,127.035,349.919z M127.035,298.719c-5.12,0-8.533-3.413-8.533-8.533v-17.067
		c0-5.12,3.413-8.533,8.533-8.533s8.533,3.413,8.533,8.533v17.067C135.568,295.305,132.155,298.719,127.035,298.719z
		 M127.035,247.519c-5.12,0-8.533-3.413-8.533-8.533v-17.067c0-5.12,3.413-8.533,8.533-8.533s8.533,3.413,8.533,8.533v17.067
		C135.568,244.105,132.155,247.519,127.035,247.519z M127.035,196.319c-5.12,0-8.533-3.413-8.533-8.533v-17.067
		c0-5.12,3.413-8.533,8.533-8.533s8.533,3.413,8.533,8.533v17.067C135.568,192.905,132.155,196.319,127.035,196.319z"/>
	<path d="M502.501,392.585H383.035c-5.12,0-8.533-3.413-8.533-8.533V136.585H127.035c-5.12,0-8.533-3.413-8.533-8.533V8.585
		c0-5.12,3.413-8.533,8.533-8.533h375.467c5.12,0,8.533,3.413,8.533,8.533v375.467C511.035,389.172,507.621,392.585,502.501,392.585
		z M391.568,375.519h102.4v-358.4h-358.4v102.4h247.467c5.12,0,8.533,3.413,8.533,8.533V375.519z"/>
	<path d="M383.035,136.585H7.568c-3.413,0-6.827-1.707-7.68-5.12c-1.707-3.413-0.853-6.827,1.707-9.387L121.061,2.612
		c1.707-1.707,3.413-2.56,5.973-2.56h375.467c3.413,0,6.827,1.707,7.68,5.12c1.707,3.413,0.853,6.827-1.707,9.387L389.008,134.025
		C387.301,135.732,385.595,136.585,383.035,136.585z M28.048,119.519h351.573l102.4-102.4H130.448L28.048,119.519z"/>
	<path d="M383.035,512.052c-0.853,0-2.56,0-3.413-0.853c-3.413-0.853-5.12-4.267-5.12-7.68V128.052c0-2.56,0.853-4.267,2.56-5.973
		L496.528,2.612c2.56-2.56,5.973-3.413,9.387-1.707c3.413,1.707,5.12,4.267,5.12,7.68v375.467c0,2.56-0.853,4.267-2.56,5.973
		L389.008,509.492C387.301,511.199,385.595,512.052,383.035,512.052z M391.568,131.465v351.573l102.4-102.4V29.065L391.568,131.465z
		 M502.501,384.052L502.501,384.052L502.501,384.052z"/>
	<path d="M7.568,512.052c-2.56,0-4.267-0.853-5.973-2.56c-3.413-3.413-3.413-8.533,0-11.947l5.973-5.973
		c3.413-3.413,8.533-3.413,11.947,0c3.413,3.413,3.413,8.533,0,11.947l-5.973,5.973C11.835,511.199,10.128,512.052,7.568,512.052z"
		/>
	<path d="M40.848,478.772c-2.56,0-4.267-0.853-5.973-2.56c-3.413-3.413-3.413-8.533,0-11.947l13.653-13.653
		c3.413-3.413,8.533-3.413,11.947,0c3.413,3.413,3.413,8.533,0,11.947l-13.653,13.653C45.115,477.919,42.555,478.772,40.848,478.772
		z M80.955,438.665c-2.56,0-4.267-0.853-5.973-2.56c-3.413-3.413-3.413-8.533,0-11.947l13.653-13.653
		c3.413-3.413,8.533-3.413,11.947,0c3.413,3.413,3.413,8.533,0,11.947l-13.653,13.653C85.221,437.812,82.661,438.665,80.955,438.665
		z"/>
	<path d="M121.061,398.559c-2.56,0-4.267-0.853-5.973-2.56c-3.413-3.413-3.413-8.533,0-11.947l5.973-5.973
		c3.413-3.413,8.533-3.413,11.947,0c3.413,3.413,3.413,8.533,0,11.947l-5.973,5.973
		C125.328,397.705,122.768,398.559,121.061,398.559z"/>
</g>
<g>
</g>
<g>
</g>
<g>
</g>
<g>
</g>
<g>
</g>
<g>
</g>
<g>
</g>
<g>
</g>
<g>
</g>
<g>
</g>
<g>
</g>
<g>
</g>
<g>
</g>
<g>
</g>
<g>
</g>
</svg>
