<?xml version="1.0" encoding="iso-8859-1"?>
<!-- Generator: Adobe Illustrator 19.0.0, SVG Export Plug-In . SVG Version: 6.00 Build 0)  -->
<svg version="1.1" id="Layer_1" xmlns="http://www.w3.org/2000/svg" xmlns:xlink="http://www.w3.org/1999/xlink" x="0px" y="0px"
	 viewBox="0 0 512 512" style="enable-background:new 0 0 512 512;" xml:space="preserve">
<g>
	<g>
		<path d="M490.667,192h-31.872C437.909,126.08,385.856,74.027,320,53.184V21.333C320,9.557,310.464,0,298.667,0h-85.333
			C201.536,0,192,9.557,192,21.333v31.851C126.144,74.027,74.091,126.08,53.205,192H21.333C9.536,192,0,201.557,0,213.333v85.333
			C0,310.464,9.536,320,21.333,320h31.872C74.091,385.92,126.144,437.973,192,458.837v31.829c0,11.797,9.536,21.333,21.333,21.333
			h85.333c11.797,0,21.333-9.536,21.333-21.333v-31.851C385.899,437.931,437.973,385.877,458.837,320h31.829
			c11.797,0,21.333-9.536,21.333-21.333v-85.333C512,201.557,502.464,192,490.667,192z M320,414.059v-8.725
			c0-11.776-9.536-21.333-21.333-21.333h-85.333C201.536,384,192,393.557,192,405.333v8.747
			c-42.56-17.323-76.715-51.477-94.037-94.08h8.704c11.797,0,21.333-9.536,21.333-21.333v-85.333
			c0-11.776-9.536-21.333-21.333-21.333h-8.704c17.323-42.581,51.477-76.757,94.037-94.059v8.725
			c0,11.797,9.536,21.333,21.333,21.333h85.333c11.797,0,21.333-9.536,21.333-21.333v-8.725
			c42.56,17.301,76.715,51.477,94.037,94.059h-8.704C393.536,192,384,201.557,384,213.333v85.333
			c0,11.797,9.536,21.333,21.333,21.333h8.725C396.757,362.56,362.581,396.736,320,414.059z"/>
	</g>
</g>
<g>
</g>
<g>
</g>
<g>
</g>
<g>
</g>
<g>
</g>
<g>
</g>
<g>
</g>
<g>
</g>
<g>
</g>
<g>
</g>
<g>
</g>
<g>
</g>
<g>
</g>
<g>
</g>
<g>
</g>
</svg>
