<?xml version="1.0" encoding="iso-8859-1"?>
<!-- Generator: Adobe Illustrator 19.0.0, SVG Export Plug-In . SVG Version: 6.00 Build 0)  -->
<svg version="1.1" id="Layer_1" xmlns="http://www.w3.org/2000/svg" xmlns:xlink="http://www.w3.org/1999/xlink" x="0px" y="0px"
	 viewBox="0 0 512 512" style="enable-background:new 0 0 512 512;" xml:space="preserve">
<g>
	<g>
		<path d="M0,0v512h512V0H0z M21.333,99.541C21.333,88.747,30.08,80,40.875,80c10.816,0,19.563,8.747,19.563,19.541v19.563
			c0,10.795-8.747,19.563-19.563,19.563c-10.795,0-19.541-8.768-19.541-19.563V99.541z M21.333,197.333
			c0-10.816,8.747-19.563,19.541-19.563c10.816,0,19.563,8.747,19.563,19.563v19.541c0,10.816-8.747,19.563-19.563,19.563
			c-10.795,0-19.541-8.747-19.541-19.563V197.333z M21.333,295.104c0-10.795,8.747-19.563,19.541-19.563
			c10.816,0,19.563,8.768,19.563,19.563v19.563c0,10.795-8.747,19.541-19.563,19.541c-10.795,0-19.541-8.747-19.541-19.541V295.104z
			 M21.333,412.437v-19.563c0-10.795,8.747-19.541,19.541-19.541c10.816,0,19.563,8.747,19.563,19.541v19.563
			c0,10.795-8.747,19.563-19.563,19.563C30.08,432,21.333,423.232,21.333,412.437z M80,490.667H60.437
			c-10.816,0-19.563-8.768-19.563-19.563s8.747-19.563,19.563-19.563H80c10.795,0,19.541,8.768,19.541,19.563
			S90.795,490.667,80,490.667z M80,60.437H60.437c-10.816,0-19.563-8.747-19.563-19.563c0-10.795,8.747-19.541,19.563-19.541H80
			c10.795,0,19.541,8.747,19.541,19.541C99.541,51.691,90.795,60.437,80,60.437z M177.771,490.667h-19.563
			c-10.795,0-19.541-8.768-19.541-19.563s8.747-19.563,19.541-19.563h19.563c10.816,0,19.563,8.768,19.563,19.563
			S188.587,490.667,177.771,490.667z M177.771,60.437h-19.563c-10.795,0-19.541-8.747-19.541-19.563
			c0-10.795,8.747-19.541,19.541-19.541h19.563c10.816,0,19.563,8.747,19.563,19.541C197.333,51.691,188.587,60.437,177.771,60.437z
			 M275.541,490.667H256c-10.816,0-19.563-8.768-19.563-19.563s8.747-19.563,19.563-19.563h19.541
			c10.816,0,19.563,8.768,19.563,19.563S286.357,490.667,275.541,490.667z M275.541,60.437H256
			c-10.816,0-19.563-8.747-19.563-19.563c0-10.795,8.747-19.541,19.563-19.541h19.541c10.816,0,19.563,8.747,19.563,19.541
			C295.104,51.691,286.357,60.437,275.541,60.437z M373.333,490.667h-19.563c-10.816,0-19.563-8.768-19.563-19.563
			s8.747-19.563,19.563-19.563h19.563c10.795,0,19.541,8.768,19.541,19.563S384.128,490.667,373.333,490.667z M373.333,60.437
			h-19.563c-10.816,0-19.563-8.747-19.563-19.563c0-10.795,8.747-19.541,19.563-19.541h19.563c10.795,0,19.541,8.747,19.541,19.541
			C392.875,51.691,384.128,60.437,373.333,60.437z M490.667,432c0,10.795-8.747,19.541-19.563,19.541
			c10.816,0,19.563,8.768,19.563,19.563s-8.747,19.563-19.563,19.563h-19.563c-10.795,0-19.541-8.768-19.541-19.563
			s8.747-19.563,19.541-19.563h19.563c-10.816,0-19.563-8.747-19.563-19.541v-19.563c0-10.795,8.747-19.563,19.563-19.563
			s19.563,8.768,19.563,19.563V432z M490.667,334.208c0,10.816-8.747,19.563-19.563,19.563s-19.563-8.747-19.563-19.563v-19.541
			c0-10.816,8.747-19.563,19.563-19.563s19.563,8.747,19.563,19.563V334.208z M490.667,236.437c0,10.795-8.747,19.563-19.563,19.563
			s-19.563-8.768-19.563-19.563v-19.563c0-10.795,8.747-19.541,19.563-19.541s19.563,8.747,19.563,19.541V236.437z M490.667,138.667
			c0,10.795-8.747,19.541-19.563,19.541s-19.563-8.747-19.563-19.541v-19.563c0-10.795,8.747-19.563,19.563-19.563
			s19.563,8.768,19.563,19.563V138.667z M471.104,60.437h-19.563c-10.795,0-19.541-8.747-19.541-19.563
			c0-10.795,8.747-19.541,19.541-19.541h19.563c10.816,0,19.563,8.747,19.563,19.541C490.667,51.691,481.92,60.437,471.104,60.437z"
			/>
	</g>
</g>
<g>
</g>
<g>
</g>
<g>
</g>
<g>
</g>
<g>
</g>
<g>
</g>
<g>
</g>
<g>
</g>
<g>
</g>
<g>
</g>
<g>
</g>
<g>
</g>
<g>
</g>
<g>
</g>
<g>
</g>
</svg>
