<?xml version="1.0" encoding="iso-8859-1"?>
<!-- Generator: Adobe Illustrator 19.0.0, SVG Export Plug-In . SVG Version: 6.00 Build 0)  -->
<svg version="1.1" id="Layer_1" xmlns="http://www.w3.org/2000/svg" xmlns:xlink="http://www.w3.org/1999/xlink" x="0px" y="0px"
	 viewBox="0 0 512 512" style="enable-background:new 0 0 512 512;" xml:space="preserve">
<g transform="translate(1)">
	<path style="fill:#556080;" d="M292.547,281.6c-11.947,0-30.72,1.707-37.547,7.68c-11.093,10.24-11.947,23.893-8.533,35.84
		c1.707,7.68-5.12,13.653-12.8,10.24c-19.627-8.533-32.427-29.013-29.013-52.053c2.56-22.187,20.48-40.107,42.667-43.52
		c23.893-3.413,45.227,9.387,53.76,29.867C302.787,274.773,298.52,281.6,292.547,281.6 M255,8.533
		C118.467,8.533,7.533,119.467,7.533,256S118.467,503.467,255,503.467c227.84,0-1.707-136.533,42.667-179.2
		c46.933-45.227,204.8,23.04,204.8-68.267C502.467,119.467,391.533,8.533,255,8.533"/>
	<path style="fill:#DD691D;" d="M289.133,76.8c0,18.773-15.36,34.133-34.133,34.133s-34.133-15.36-34.133-34.133
		S236.227,42.667,255,42.667S289.133,58.027,289.133,76.8"/>
	<path style="fill:#F8E7A1;" d="M289.133,435.2c0,18.773-15.36,34.133-34.133,34.133s-34.133-15.36-34.133-34.133
		c0-18.773,15.36-34.133,34.133-34.133S289.133,416.427,289.133,435.2"/>
	<path style="fill:#25B99A;" d="M434.2,273.067c-18.773,0-34.133-15.36-34.133-34.133S415.427,204.8,434.2,204.8
		c18.773,0,34.133,15.36,34.133,34.133S452.973,273.067,434.2,273.067"/>
	<path style="fill:#ECBA16;" d="M75.8,290.133c-18.773,0-34.133-15.36-34.133-34.133s15.36-34.133,34.133-34.133
		s34.133,15.36,34.133,34.133S94.573,290.133,75.8,290.133"/>
	<path style="fill:#ED8A19;" d="M152.6,104.96c13.653,13.653,13.653,34.987,0,48.64s-34.987,13.653-48.64,0s-13.653-34.987,0-48.64
		S138.947,92.16,152.6,104.96"/>
	<path style="fill:#7383BF;" d="M389.827,153.6c-13.653,13.653-34.987,13.653-48.64,0c-13.653-13.653-13.653-34.987,0-48.64
		s34.987-13.653,48.64,0S403.48,139.947,389.827,153.6"/>
	<path style="fill:#F0CE49;" d="M152.6,407.04c-13.653,13.653-34.987,13.653-48.64,0s-13.653-34.987,0-48.64
		c13.653-13.653,34.987-13.653,48.64,0C165.4,372.053,165.4,393.387,152.6,407.04"/>
	<path d="M255,512C114.2,512-1,396.8-1,256S114.2,0,255,0s256,115.2,256,256c0,17.067-5.12,30.72-14.507,40.107
		c-21.333,21.333-62.293,20.48-101.547,19.627c-35.84-0.853-73.387-1.707-90.453,14.507c-11.093,10.24,7.68,36.693,26.453,61.44
		c22.187,30.72,45.227,63.147,32.427,88.747C351.427,501.76,317.293,512,255,512z M255,17.067
		C123.587,17.067,16.067,124.587,16.067,256S123.587,494.933,255,494.933c66.56,0,87.04-11.947,92.16-22.187
		c8.533-16.213-12.8-45.227-30.72-70.827c-22.187-31.573-46.08-63.147-23.893-83.627c22.187-21.333,63.147-20.48,103.253-19.627
		c35.84,0.853,73.387,1.707,89.6-14.507c6.827-6.827,9.387-15.36,9.387-28.16C493.933,124.587,386.413,17.067,255,17.067z"/>
	<path d="M237.08,344.747c-2.56,0-5.12-0.853-7.68-1.707l0,0c-23.893-11.093-37.547-34.987-34.133-61.44
		c3.413-25.6,23.893-46.933,49.493-51.2c26.453-4.267,52.053,10.24,63.147,34.133c2.56,5.12,1.707,11.947-1.707,16.213
		c-3.413,5.12-8.533,7.68-14.507,7.68c-18.773,0-29.013,3.413-31.573,5.12c-9.387,8.533-8.533,19.627-6.827,27.307
		c1.707,6.827-0.853,13.653-5.973,17.92C245.613,343.893,241.347,344.747,237.08,344.747z M254.147,247.467
		c-2.56,0-4.267,0-6.827,0.853c-17.92,2.56-33.28,17.92-34.987,35.84c-2.56,18.773,7.68,35.84,24.747,43.52l0,0h0.853
		c-4.267-17.92,0-33.28,11.093-44.373c2.56-2.56,10.24-10.24,43.52-10.24C285.72,256.853,271.213,247.467,254.147,247.467z"/>
	<path d="M255,119.467c-23.893,0-42.667-18.773-42.667-42.667S231.107,34.133,255,34.133s42.667,18.773,42.667,42.667
		S278.893,119.467,255,119.467z M255,51.2c-14.507,0-25.6,11.093-25.6,25.6s11.093,25.6,25.6,25.6c14.507,0,25.6-11.093,25.6-25.6
		S269.507,51.2,255,51.2z"/>
	<path d="M255,477.867c-23.893,0-42.667-18.773-42.667-42.667c0-23.893,18.773-42.667,42.667-42.667s42.667,18.773,42.667,42.667
		C297.667,459.093,278.893,477.867,255,477.867z M255,409.6c-14.507,0-25.6,11.093-25.6,25.6c0,14.507,11.093,25.6,25.6,25.6
		c14.507,0,25.6-11.093,25.6-25.6C280.6,420.693,269.507,409.6,255,409.6z"/>
	<path d="M434.2,281.6c-23.893,0-42.667-18.773-42.667-42.667s18.773-42.667,42.667-42.667c23.893,0,42.667,18.773,42.667,42.667
		S458.093,281.6,434.2,281.6z M434.2,213.333c-14.507,0-25.6,11.093-25.6,25.6c0,14.507,11.093,25.6,25.6,25.6
		c14.507,0,25.6-11.093,25.6-25.6C459.8,224.427,448.707,213.333,434.2,213.333z"/>
	<path d="M75.8,298.667c-23.893,0-42.667-18.773-42.667-42.667c0-23.893,18.773-42.667,42.667-42.667s42.667,18.773,42.667,42.667
		C118.467,279.893,99.693,298.667,75.8,298.667z M75.8,230.4c-14.507,0-25.6,11.093-25.6,25.6c0,14.507,11.093,25.6,25.6,25.6
		s25.6-11.093,25.6-25.6C101.4,241.493,90.307,230.4,75.8,230.4z"/>
	<path d="M128.707,171.52c-11.093,0-22.187-4.267-29.867-12.8c-16.213-16.213-16.213-43.52,0-60.587
		c16.213-16.213,43.52-16.213,60.587,0c16.213,16.213,16.213,43.52,0,60.587C150.04,168.107,138.947,171.52,128.707,171.52z
		 M128.707,104.107c-6.827,0-12.8,2.56-17.92,7.68c-10.24,10.24-10.24,26.453,0,35.84c10.24,10.24,26.453,10.24,35.84,0
		c10.24-10.24,10.24-26.453,0-35.84C141.507,105.813,134.68,104.107,128.707,104.107z"/>
	<path d="M365.933,171.52c-11.093,0-22.187-4.267-29.867-12.8c-7.68-8.533-12.8-17.92-12.8-29.867
		c0-11.947,4.267-22.187,12.8-29.867s18.773-12.8,29.867-12.8s22.187,4.267,29.867,12.8s12.8,18.773,12.8,29.867
		c0,11.093-4.267,22.187-12.8,29.867l0,0l0,0l0,0C388.12,167.253,377.027,171.52,365.933,171.52z M365.933,103.253
		c-6.827,0-13.653,2.56-17.92,7.68c-5.12,5.12-7.68,11.093-7.68,17.92c0,6.827,2.56,13.653,7.68,17.92
		c9.387,9.387,26.453,9.387,35.84,0l0,0c5.12-5.12,7.68-11.093,7.68-17.92c0-6.827-2.56-13.653-7.68-17.92
		C379.587,106.667,372.76,103.253,365.933,103.253z"/>
	<path d="M128.707,424.96c-11.093,0-22.187-4.267-29.867-12.8c-7.68-8.533-12.8-18.773-12.8-29.867
		c0-11.093,4.267-22.187,12.8-29.867c16.213-16.213,43.52-16.213,60.587,0c7.68,7.68,12.8,18.773,12.8,29.867
		c0,11.093-4.267,22.187-12.8,29.867l0,0l0,0l0,0C150.04,420.693,139.8,424.96,128.707,424.96z M128.707,356.693
		c-6.827,0-12.8,2.56-17.92,7.68c-5.12,5.12-7.68,11.093-7.68,17.92s2.56,13.653,7.68,17.92c9.387,9.387,26.453,9.387,35.84,0l0,0
		c5.12-5.12,7.68-11.093,7.68-17.92s-2.56-13.653-7.68-17.92C141.507,359.253,134.68,356.693,128.707,356.693z"/>
</g>
<g>
</g>
<g>
</g>
<g>
</g>
<g>
</g>
<g>
</g>
<g>
</g>
<g>
</g>
<g>
</g>
<g>
</g>
<g>
</g>
<g>
</g>
<g>
</g>
<g>
</g>
<g>
</g>
<g>
</g>
</svg>
