<?xml version="1.0" encoding="iso-8859-1"?>
<!-- Generator: Adobe Illustrator 19.0.0, SVG Export Plug-In . SVG Version: 6.00 Build 0)  -->
<svg version="1.1" id="Layer_1" xmlns="http://www.w3.org/2000/svg" xmlns:xlink="http://www.w3.org/1999/xlink" x="0px" y="0px"
	 viewBox="0 0 512.001 512.001" style="enable-background:new 0 0 512.001 512.001;" xml:space="preserve">
<g>
	<path style="fill:#50A5DC;" d="M429.949,82.053C383.487,35.59,321.71,10.001,256.001,10.001c-34.17,0-67.255,6.879-98.337,20.448
		c-21.988,9.599-42.211,22.21-60.393,37.605l33.009,31.568c35.481-28.683,79.262-44.234,125.721-44.234
		c110.618,0,200.613,89.994,200.613,200.613c0,46.694-16.391,92.16-46.153,128.024c-17.554,21.153-38.819,38.206-63.203,50.685
		c-11.157,5.709-15.574,19.383-9.864,30.54c4.016,7.847,11.971,12.36,20.22,12.36c3.479,0,7.01-0.803,10.32-2.497
		c29.891-15.296,55.95-36.191,77.454-62.103c36.507-43.992,56.613-99.752,56.613-157.009
		C502.001,190.292,476.413,128.516,429.949,82.053z"/>
	<path style="fill:#50A5DC;" d="M256.001,502.001c-28.193,0-55.849-4.736-82.199-14.075c-11.813-4.187-17.995-17.158-13.808-28.971
		c4.188-11.814,17.159-17.995,28.972-13.808c21.468,7.609,44.021,11.467,67.035,11.467c4.402,0,8.85-0.144,13.218-0.428
		c12.515-0.817,23.305,8.667,24.117,21.174c0.813,12.507-8.667,23.305-21.174,24.117
		C266.819,501.825,261.381,502.001,256.001,502.001z"/>
	<path d="M256.001,512c-29.335,0-58.114-4.929-85.54-14.65c-8.231-2.917-14.834-8.866-18.591-16.749s-4.219-16.758-1.302-24.989
		c6.023-16.992,24.75-25.915,41.738-19.893c20.392,7.228,41.821,10.893,63.694,10.893c4.183,0,8.412-0.137,12.571-0.406
		c8.71-0.565,17.131,2.292,23.692,8.056c6.56,5.761,10.484,13.733,11.051,22.448c1.169,17.99-12.516,33.576-30.505,34.745
		C267.258,511.818,261.602,512,256.001,512z M181.396,453.841c-5.226,0-10.133,3.254-11.976,8.454
		c-2.339,6.597,1.126,13.867,7.723,16.206c25.274,8.958,51.805,13.5,78.858,13.5c5.17,0,10.389-0.169,15.512-0.502
		c6.985-0.454,12.299-6.505,11.846-13.49c-0.221-3.385-1.744-6.482-4.291-8.719c-2.548-2.236-5.816-3.348-9.197-3.125
		c-4.592,0.297-9.256,0.448-13.869,0.448c-24.155,0-47.833-4.051-70.376-12.042C184.228,454.076,182.8,453.841,181.396,453.841z"/>
	<path style="fill:#50A5DC;" d="M104.276,442.546c-5.518,0-11.05-2-15.418-6.046c-24.713-22.894-44.151-50.052-57.774-80.72
		c-5.087-11.454,0.073-24.864,11.527-29.952c11.453-5.087,24.865,0.073,29.953,11.527c11.108,25.009,26.969,47.163,47.14,65.849
		c9.194,8.518,9.742,22.876,1.225,32.07C116.457,440.102,110.375,442.546,104.276,442.546z"/>
	<path d="M104.275,452.545c-8.261,0-16.149-3.093-22.213-8.709c-25.714-23.82-45.94-52.081-60.117-83.997
		c-7.318-16.476,0.131-35.833,16.605-43.151c16.479-7.314,35.835,0.133,43.151,16.606c10.554,23.76,25.626,44.813,44.798,62.573
		c13.224,12.251,14.016,32.978,1.765,46.202C122.098,448.728,113.355,452.545,104.275,452.545z M51.805,333.875
		c-1.72,0-3.466,0.351-5.136,1.092c-3.098,1.376-5.475,3.877-6.692,7.041c-1.218,3.165-1.13,6.614,0.246,9.712
		c13.07,29.422,31.72,55.478,55.432,77.444c2.354,2.18,5.416,3.381,8.621,3.381c3.579,0,6.888-1.444,9.317-4.067
		c4.757-5.135,4.449-13.182-0.685-17.939c-21.174-19.614-37.822-42.872-49.483-69.125C61.325,336.688,56.672,333.875,51.805,333.875
		z"/>
	<path style="fill:#50A5DC;" d="M32.704,281.196c-12.42,0-22.555-10.001-22.688-22.452c-0.009-0.905-0.014-1.812-0.015-2.719
		c-0.013-12.533,10.136-22.704,22.67-22.718c0.007,0,0.017,0,0.025,0c12.522,0,22.68,10.144,22.693,22.67
		c0.001,0.762,0.004,1.523,0.013,2.284c0.133,12.533-9.919,22.801-22.452,22.934C32.868,281.195,32.786,281.196,32.704,281.196z"/>
	<path d="M32.703,291.196c-17.832,0-32.495-14.51-32.687-32.345c-0.01-0.944-0.015-1.879-0.016-2.815
		c-0.01-8.733,3.383-16.946,9.551-23.128c6.169-6.182,14.375-9.591,23.108-9.6c18.043,0,32.709,14.651,32.729,32.659
		c0.001,0.726,0.004,1.452,0.012,2.179c0.094,8.741-3.22,16.987-9.329,23.228c-6.108,6.24-14.282,9.729-23.015,9.821L32.703,291.196
		z M32.695,243.307c-3.405,0.003-6.591,1.327-8.986,3.728c-2.395,2.4-3.712,5.589-3.708,8.979c0.001,0.878,0.006,1.756,0.015,2.632
		c0.074,6.915,5.766,12.549,12.688,12.549l0.128-0.001c3.403-0.036,6.577-1.39,8.949-3.813c2.371-2.423,3.658-5.624,3.622-9.014
		c-0.01-0.786-0.013-1.582-0.014-2.378C45.381,248.996,39.687,243.307,32.695,243.307z"/>
	<path style="fill:#FCE600;" d="M135.832,142.102l-81.768,23.871c-13.232,3.863-25.684-8.046-22.416-21.437l20.2-82.752
		c3.269-13.393,19.811-18.224,29.774-8.695l61.568,58.881C153.154,121.498,149.066,138.239,135.832,142.102z"/>
	<path d="M437.021,74.981c-48.352-48.351-112.639-74.98-181.02-74.98c-35.556,0-69.986,7.161-102.338,21.283
		c-20.108,8.778-38.793,19.98-55.869,33.434l-9.26-8.855c-7.293-6.975-17.427-9.447-27.114-6.62
		c-9.685,2.829-16.895,10.37-19.286,20.17l-20.2,82.752c-2.393,9.801,0.532,19.815,7.824,26.788
		c5.306,5.075,12.117,7.766,19.165,7.766c2.637,0,5.307-0.376,7.943-1.146l81.768-23.871c9.686-2.827,16.897-10.367,19.291-20.168
		c2.395-9.802-0.53-19.817-7.822-26.791l-4.438-4.244c31.967-22.821,70.092-35.11,110.336-35.11
		c105.104,0,190.612,85.508,190.612,190.612c0,44.367-15.572,87.566-43.849,121.638c-16.684,20.104-36.892,36.311-60.063,48.168
		c-7.773,3.979-13.533,10.746-16.217,19.056c-2.685,8.31-1.972,17.168,2.007,24.942c5.62,10.982,16.779,17.805,29.123,17.805
		c5.138,0,10.282-1.243,14.875-3.594c31.102-15.916,58.217-37.657,80.594-64.619c37.994-45.785,58.918-103.813,58.918-163.396
		C512.001,187.62,485.372,123.333,437.021,74.981z M136.279,119.196c2.979,2.848,2.543,6.258,2.217,7.591
		c-0.325,1.334-1.511,4.561-5.466,5.715h-0.001l-81.768,23.872c-3.952,1.154-6.688-0.927-7.681-1.875s-3.194-3.588-2.217-7.591
		l20.2-82.752c0.977-4.003,4.146-5.33,5.465-5.715c0.508-0.149,1.324-0.327,2.306-0.327c1.563,0,3.548,0.453,5.378,2.203
		l7.795,7.455l14.481,13.849l18.38,17.578l14.509,13.876L136.279,119.196z M437.692,406.624
		c-20.636,24.865-45.639,44.913-74.315,59.588c-1.813,0.928-3.751,1.398-5.763,1.398c-4.799,0-9.136-2.65-11.318-6.916
		c-1.545-3.019-1.822-6.458-0.78-9.685c1.042-3.226,3.278-5.854,6.297-7.398c25.598-13.1,47.919-30.999,66.343-53.201
		c31.249-37.654,48.458-85.388,48.458-134.41c0-116.132-94.48-210.612-210.612-210.612c-45.782,0-89.084,14.389-125.031,41.056
		l-18.568-17.758c15.133-11.629,31.604-21.365,49.263-29.074c29.811-13.012,61.55-19.611,94.335-19.611
		c63.038,0,122.303,24.548,166.877,69.123l0,0c44.575,44.573,69.123,103.838,69.123,166.877
		C492.001,310.93,472.714,364.422,437.692,406.624z"/>
	<g>
		<path d="M70.008,132.271c-0.854,0-1.72-0.11-2.583-0.34c-5.337-1.423-8.509-6.903-7.086-12.239l5.138-19.267
			c1.423-5.336,6.908-8.505,12.238-7.086c5.337,1.423,8.509,6.903,7.086,12.239l-5.138,19.267
			C78.471,129.317,74.427,132.271,70.008,132.271z"/>
	</g>
</g>
<g>
</g>
<g>
</g>
<g>
</g>
<g>
</g>
<g>
</g>
<g>
</g>
<g>
</g>
<g>
</g>
<g>
</g>
<g>
</g>
<g>
</g>
<g>
</g>
<g>
</g>
<g>
</g>
<g>
</g>
</svg>
