<?xml version="1.0" encoding="iso-8859-1"?>
<!-- Generator: Adobe Illustrator 19.0.0, SVG Export Plug-In . SVG Version: 6.00 Build 0)  -->
<svg version="1.1" id="Layer_1" xmlns="http://www.w3.org/2000/svg" xmlns:xlink="http://www.w3.org/1999/xlink" x="0px" y="0px"
	 viewBox="0 0 511.5 511.5" style="enable-background:new 0 0 511.5 511.5;" xml:space="preserve">
<path style="fill:#25B99A;" d="M270.433,497.134c-0.853,0-0.853,0-1.707,0c-67.413,0-130.56-27.307-178.347-75.093
	C-17.994,310.254-30.794,131.907,62.22,7.321c2.56-3.413,8.533-4.267,11.947-1.707s4.267,8.533,1.707,11.947
	c-87.893,117.76-75.947,286.72,27.307,392.533c43.52,44.373,102.4,69.973,165.547,69.973c0.853,0,0.853,0,1.707,0
	c64,0,123.733-24.747,168.96-69.973c73.387-73.387,73.387-192.853,0-267.093c-58.027-58.027-152.747-58.027-210.773,0
	c-46.08,46.08-46.08,120.32,0,166.4c35.84,35.84,94.72,35.84,130.56,0c28.16-28.16,28.16-74.24,0-102.4
	c-22.187-22.187-57.173-22.187-79.36,0c-17.067,17.067-17.067,44.373,0,60.587c12.8,12.8,33.28,12.8,46.08,0
	c3.413-3.413,8.533-3.413,11.947,0c3.413,3.413,3.413,8.533,0,11.947c-19.627,19.627-51.2,19.627-70.827,0
	c-23.893-23.893-23.893-61.44,0-85.333c28.16-28.16,75.093-28.16,103.253,0c34.987,34.987,34.987,91.307,0,126.293
	c-42.667,42.667-111.787,42.667-154.453,0c-52.907-52.907-52.907-138.24,0-190.293c64.853-64.853,170.667-64.853,234.667,0
	c80.213,80.213,80.213,210.773,0,290.987C403.553,470.681,338.7,497.134,270.433,497.134z"/>
<path style="fill:#231317;" d="M270.433,507.374c-0.853,0-0.853,0-1.707,0c-67.413,0-130.56-27.307-178.347-75.093
	C-17.994,320.494-30.794,142.147,62.22,17.561c2.56-3.413,8.533-4.267,11.947-1.707s4.267,8.533,1.707,11.947
	c-87.893,117.76-75.947,286.72,27.307,392.533c43.52,44.373,102.4,69.973,165.547,69.973c0.853,0,0.853,0,1.707,0
	c64,0,123.733-24.747,168.96-69.973c73.387-73.387,73.387-192.853,0-267.093c-58.027-58.027-152.747-58.027-210.773,0
	c-22.187,22.187-34.133,52.053-34.133,82.773c0,31.573,11.947,60.587,34.133,82.773c35.84,35.84,94.72,35.84,130.56,0
	c28.16-28.16,28.16-74.24,0-102.4c-22.187-22.187-57.173-22.187-79.36,0c-17.067,17.067-17.067,44.373,0,60.587
	c12.8,12.8,34.133,12.8,46.08,0c3.413-3.413,8.533-3.413,11.947,0c3.413,3.413,3.413,8.533,0,11.947
	c-9.387,9.387-22.187,14.507-34.987,14.507c-13.653,0-25.6-5.12-34.987-14.507c-23.893-23.893-23.893-61.44,0-85.333
	c28.16-28.16,75.093-28.16,103.253,0c34.987,34.987,34.987,91.307,0,126.293c-42.667,42.667-111.787,42.667-154.453,0
	c-25.6-25.6-39.253-58.88-39.253-95.573c0-35.84,13.653-69.973,39.253-95.573c64.853-64.853,170.667-64.853,234.667,0
	c80.213,80.213,80.213,210.773,0,290.987C403.553,480.921,338.7,507.374,270.433,507.374z"/>
<g>
</g>
<g>
</g>
<g>
</g>
<g>
</g>
<g>
</g>
<g>
</g>
<g>
</g>
<g>
</g>
<g>
</g>
<g>
</g>
<g>
</g>
<g>
</g>
<g>
</g>
<g>
</g>
<g>
</g>
</svg>
