<?xml version="1.0" encoding="iso-8859-1"?>
<!-- Generator: Adobe Illustrator 19.0.0, SVG Export Plug-In . SVG Version: 6.00 Build 0)  -->
<svg version="1.1" id="Layer_1" xmlns="http://www.w3.org/2000/svg" xmlns:xlink="http://www.w3.org/1999/xlink" x="0px" y="0px"
	 viewBox="0 0 512 512" style="enable-background:new 0 0 512 512;" xml:space="preserve">
<g transform="translate(1)">
	<g>
		<path style="fill:#7383BF;" d="M485.4,307.2c-5.12,0-8.533-3.413-8.533-8.533V281.6c0-5.12,3.413-8.533,8.533-8.533
			s8.533,3.413,8.533,8.533v17.067C493.933,303.787,490.52,307.2,485.4,307.2 M485.4,358.4c-5.12,0-8.533-3.413-8.533-8.533V332.8
			c0-5.12,3.413-8.533,8.533-8.533s8.533,3.413,8.533,8.533v17.067C493.933,354.987,490.52,358.4,485.4,358.4 M485.4,409.6
			c-5.12,0-8.533-3.413-8.533-8.533V384c0-5.12,3.413-8.533,8.533-8.533s8.533,3.413,8.533,8.533v17.067
			C493.933,406.187,490.52,409.6,485.4,409.6 M485.4,460.8c-5.12,0-8.533-3.413-8.533-8.533V435.2c0-5.12,3.413-8.533,8.533-8.533
			s8.533,3.413,8.533,8.533v17.067C493.933,457.387,490.52,460.8,485.4,460.8"/>
		<path style="fill:#7383BF;" d="M297.667,477.867H280.6c-5.12,0-8.533-3.413-8.533-8.533c0-5.12,3.413-8.533,8.533-8.533h17.067
			c5.12,0,8.533,3.413,8.533,8.533C306.2,474.453,302.787,477.867,297.667,477.867 M348.867,477.867H331.8
			c-5.12,0-8.533-3.413-8.533-8.533c0-5.12,3.413-8.533,8.533-8.533h17.067c5.12,0,8.533,3.413,8.533,8.533
			C357.4,474.453,353.987,477.867,348.867,477.867 M400.067,477.867H383c-5.12,0-8.533-3.413-8.533-8.533
			c0-5.12,3.413-8.533,8.533-8.533h17.067c5.12,0,8.533,3.413,8.533,8.533C408.6,474.453,405.187,477.867,400.067,477.867
			 M451.267,477.867H434.2c-5.12,0-8.533-3.413-8.533-8.533c0-5.12,3.413-8.533,8.533-8.533h17.067c5.12,0,8.533,3.413,8.533,8.533
			C459.8,474.453,456.387,477.867,451.267,477.867"/>
		<path style="fill:#7383BF;" d="M84.333,477.867H67.267c-5.12,0-8.533-3.413-8.533-8.533c0-5.12,3.413-8.533,8.533-8.533h17.067
			c5.12,0,8.533,3.413,8.533,8.533C92.867,474.453,89.453,477.867,84.333,477.867 M135.533,477.867h-17.067
			c-5.12,0-8.533-3.413-8.533-8.533c0-5.12,3.413-8.533,8.533-8.533h17.067c5.12,0,8.533,3.413,8.533,8.533
			C144.067,474.453,140.653,477.867,135.533,477.867 M186.733,477.867h-17.067c-5.12,0-8.533-3.413-8.533-8.533
			c0-5.12,3.413-8.533,8.533-8.533h17.067c5.12,0,8.533,3.413,8.533,8.533C195.267,474.453,191.853,477.867,186.733,477.867
			 M237.933,477.867h-17.067c-5.12,0-8.533-3.413-8.533-8.533c0-5.12,3.413-8.533,8.533-8.533h17.067
			c5.12,0,8.533,3.413,8.533,8.533C246.467,474.453,243.053,477.867,237.933,477.867"/>
		<path style="fill:#7383BF;" d="M41.667,307.2c-5.12,0-8.533-3.413-8.533-8.533V281.6c0-5.12,3.413-8.533,8.533-8.533
			S50.2,276.48,50.2,281.6v17.067C50.2,303.787,46.787,307.2,41.667,307.2 M41.667,358.4c-5.12,0-8.533-3.413-8.533-8.533V332.8
			c0-5.12,3.413-8.533,8.533-8.533S50.2,327.68,50.2,332.8v17.067C50.2,354.987,46.787,358.4,41.667,358.4 M41.667,409.6
			c-5.12,0-8.533-3.413-8.533-8.533V384c0-5.12,3.413-8.533,8.533-8.533S50.2,378.88,50.2,384v17.067
			C50.2,406.187,46.787,409.6,41.667,409.6 M41.667,460.8c-5.12,0-8.533-3.413-8.533-8.533V435.2c0-5.12,3.413-8.533,8.533-8.533
			S50.2,430.08,50.2,435.2v17.067C50.2,457.387,46.787,460.8,41.667,460.8"/>
		<path style="fill:#7383BF;" d="M33.133,85.333c-5.12,0-8.533-3.413-8.533-8.533V59.733c0-5.12,3.413-8.533,8.533-8.533
			s8.533,3.413,8.533,8.533V76.8C41.667,81.92,38.253,85.333,33.133,85.333 M33.133,136.533c-5.12,0-8.533-3.413-8.533-8.533
			v-17.067c0-5.12,3.413-8.533,8.533-8.533s8.533,3.413,8.533,8.533V128C41.667,133.12,38.253,136.533,33.133,136.533
			 M33.133,187.733c-5.12,0-8.533-3.413-8.533-8.533v-17.067c0-5.12,3.413-8.533,8.533-8.533s8.533,3.413,8.533,8.533V179.2
			C41.667,184.32,38.253,187.733,33.133,187.733 M33.133,238.933c-5.12,0-8.533-3.413-8.533-8.533v-17.067
			c0-5.12,3.413-8.533,8.533-8.533s8.533,3.413,8.533,8.533V230.4C41.667,235.52,38.253,238.933,33.133,238.933"/>
		<path style="fill:#7383BF;" d="M67.267,34.133H50.2c-5.12,0-8.533-3.413-8.533-8.533s3.413-8.533,8.533-8.533h17.067
			c5.12,0,8.533,3.413,8.533,8.533S72.387,34.133,67.267,34.133 M118.467,34.133H101.4c-5.12,0-8.533-3.413-8.533-8.533
			s3.413-8.533,8.533-8.533h17.067c5.12,0,8.533,3.413,8.533,8.533S123.587,34.133,118.467,34.133 M169.667,34.133H152.6
			c-5.12,0-8.533-3.413-8.533-8.533s3.413-8.533,8.533-8.533h17.067c5.12,0,8.533,3.413,8.533,8.533S174.787,34.133,169.667,34.133
			 M220.867,34.133H203.8c-5.12,0-8.533-3.413-8.533-8.533s3.413-8.533,8.533-8.533h17.067c5.12,0,8.533,3.413,8.533,8.533
			S225.987,34.133,220.867,34.133"/>
		<path style="fill:#7383BF;" d="M306.2,34.133h-17.067c-5.12,0-8.533-3.413-8.533-8.533s3.413-8.533,8.533-8.533H306.2
			c5.12,0,8.533,3.413,8.533,8.533S311.32,34.133,306.2,34.133 M357.4,34.133h-17.067c-5.12,0-8.533-3.413-8.533-8.533
			s3.413-8.533,8.533-8.533H357.4c5.12,0,8.533,3.413,8.533,8.533S362.52,34.133,357.4,34.133 M408.6,34.133h-17.067
			c-5.12,0-8.533-3.413-8.533-8.533s3.413-8.533,8.533-8.533H408.6c5.12,0,8.533,3.413,8.533,8.533S413.72,34.133,408.6,34.133
			 M459.8,34.133h-17.067c-5.12,0-8.533-3.413-8.533-8.533s3.413-8.533,8.533-8.533H459.8c5.12,0,8.533,3.413,8.533,8.533
			S464.92,34.133,459.8,34.133"/>
		<path style="fill:#7383BF;" d="M485.4,85.333c-5.12,0-8.533-3.413-8.533-8.533V59.733c0-5.12,3.413-8.533,8.533-8.533
			s8.533,3.413,8.533,8.533V76.8C493.933,81.92,490.52,85.333,485.4,85.333 M485.4,136.533c-5.12,0-8.533-3.413-8.533-8.533v-17.067
			c0-5.12,3.413-8.533,8.533-8.533s8.533,3.413,8.533,8.533V128C493.933,133.12,490.52,136.533,485.4,136.533 M485.4,187.733
			c-5.12,0-8.533-3.413-8.533-8.533v-17.067c0-5.12,3.413-8.533,8.533-8.533s8.533,3.413,8.533,8.533V179.2
			C493.933,184.32,490.52,187.733,485.4,187.733 M485.4,238.933c-5.12,0-8.533-3.413-8.533-8.533v-17.067
			c0-5.12,3.413-8.533,8.533-8.533s8.533,3.413,8.533,8.533V230.4C493.933,235.52,490.52,238.933,485.4,238.933"/>
	</g>
	<g>
		<polygon style="fill:#434C6D;" points="7.533,59.733 58.733,59.733 58.733,8.533 7.533,8.533 		"/>
		<path style="fill:#434C6D;" d="M67.267,68.267H-1V0h68.267V68.267z M16.067,51.2H50.2V17.067H16.067V51.2z"/>
		<polygon style="fill:#434C6D;" points="7.533,281.6 58.733,281.6 58.733,230.4 7.533,230.4 		"/>
		<path style="fill:#434C6D;" d="M67.267,290.133H-1v-68.267h68.267V290.133z M16.067,273.067H50.2v-34.133H16.067V273.067z"/>
		<polygon style="fill:#434C6D;" points="451.267,281.6 502.467,281.6 502.467,230.4 451.267,230.4 		"/>
		<path style="fill:#434C6D;" d="M511,290.133h-68.267v-68.267H511V290.133z M459.8,273.067h34.133v-34.133H459.8V273.067z"/>
		<polygon style="fill:#434C6D;" points="229.4,503.467 280.6,503.467 280.6,452.267 229.4,452.267 		"/>
		<path style="fill:#434C6D;" d="M289.133,512h-68.267v-68.267h68.267V512z M237.933,494.933h34.133V460.8h-34.133V494.933z"/>
		<polygon style="fill:#434C6D;" points="229.4,59.733 280.6,59.733 280.6,8.533 229.4,8.533 		"/>
		<path style="fill:#434C6D;" d="M289.133,68.267h-68.267V0h68.267V68.267z M237.933,51.2h34.133V17.067h-34.133V51.2z"/>
		<polygon style="fill:#434C6D;" points="7.533,503.467 58.733,503.467 58.733,452.267 7.533,452.267 		"/>
		<path style="fill:#434C6D;" d="M67.267,512H-1v-68.267h68.267V512z M16.067,494.933H50.2V460.8H16.067V494.933z"/>
		<polygon style="fill:#434C6D;" points="451.267,59.733 502.467,59.733 502.467,8.533 451.267,8.533 		"/>
		<path style="fill:#434C6D;" d="M511,68.267h-68.267V0H511V68.267z M459.8,51.2h34.133V17.067H459.8V51.2z"/>
		<polygon style="fill:#434C6D;" points="451.267,503.467 502.467,503.467 502.467,452.267 451.267,452.267 		"/>
		<path style="fill:#434C6D;" d="M511,512h-68.267v-68.267H511V512z M459.8,494.933h34.133V460.8H459.8V494.933z"/>
	</g>
	<path d="M67.267,68.267H-1V0h68.267V68.267z M16.067,51.2H50.2V17.067H16.067V51.2z"/>
	<path d="M67.267,290.133H-1v-68.267h68.267V290.133z M16.067,273.067H50.2v-34.133H16.067V273.067z"/>
	<path d="M511,290.133h-68.267v-68.267H511V290.133z M459.8,273.067h34.133v-34.133H459.8V273.067z"/>
	<path d="M289.133,512h-68.267v-68.267h68.267V512z M237.933,494.933h34.133V460.8h-34.133V494.933z"/>
	<path d="M289.133,68.267h-68.267V0h68.267V68.267z M237.933,51.2h34.133V17.067h-34.133V51.2z"/>
	<path d="M67.267,512H-1v-68.267h68.267V512z M16.067,494.933H50.2V460.8H16.067V494.933z"/>
	<path d="M511,68.267h-68.267V0H511V68.267z M459.8,51.2h34.133V17.067H459.8V51.2z"/>
	<path d="M511,512h-68.267v-68.267H511V512z M459.8,494.933h34.133V460.8H459.8V494.933z"/>
	<path d="M451.267,486.4H434.2c-5.12,0-8.533-3.413-8.533-8.533c0-5.12,3.413-8.533,8.533-8.533h17.067
		c5.12,0,8.533,3.413,8.533,8.533C459.8,482.987,456.387,486.4,451.267,486.4z M400.067,486.4H383c-5.12,0-8.533-3.413-8.533-8.533
		c0-5.12,3.413-8.533,8.533-8.533h17.067c5.12,0,8.533,3.413,8.533,8.533C408.6,482.987,405.187,486.4,400.067,486.4z
		 M348.867,486.4H331.8c-5.12,0-8.533-3.413-8.533-8.533c0-5.12,3.413-8.533,8.533-8.533h17.067c5.12,0,8.533,3.413,8.533,8.533
		C357.4,482.987,353.987,486.4,348.867,486.4z M297.667,486.4H280.6c-5.12,0-8.533-3.413-8.533-8.533
		c0-5.12,3.413-8.533,8.533-8.533h17.067c5.12,0,8.533,3.413,8.533,8.533C306.2,482.987,302.787,486.4,297.667,486.4z M229.4,486.4
		c-5.12,0-8.533-3.413-8.533-8.533V460.8c0-5.12,3.413-8.533,8.533-8.533c5.12,0,8.533,3.413,8.533,8.533v17.067
		C237.933,482.987,234.52,486.4,229.4,486.4z M195.267,486.4H178.2c-5.12,0-8.533-3.413-8.533-8.533c0-5.12,3.413-8.533,8.533-8.533
		h17.067c5.12,0,8.533,3.413,8.533,8.533C203.8,482.987,200.387,486.4,195.267,486.4z M144.067,486.4H127
		c-5.12,0-8.533-3.413-8.533-8.533c0-5.12,3.413-8.533,8.533-8.533h17.067c5.12,0,8.533,3.413,8.533,8.533
		C152.6,482.987,149.187,486.4,144.067,486.4z M92.867,486.4H75.8c-5.12,0-8.533-3.413-8.533-8.533c0-5.12,3.413-8.533,8.533-8.533
		h17.067c5.12,0,8.533,3.413,8.533,8.533C101.4,482.987,97.987,486.4,92.867,486.4z M58.733,469.333
		c-5.12,0-8.533-3.413-8.533-8.533c-5.12,0-8.533-3.413-8.533-8.533s3.413-8.533,8.533-8.533h17.067V460.8
		C67.267,465.92,63.853,469.333,58.733,469.333z M476.867,460.8H459.8c-5.12,0-8.533-3.413-8.533-8.533s3.413-8.533,8.533-8.533
		h17.067c5.12,0,8.533,3.413,8.533,8.533S481.987,460.8,476.867,460.8z M272.067,460.8H255c-5.12,0-8.533-3.413-8.533-8.533
		s3.413-8.533,8.533-8.533h17.067c5.12,0,8.533,3.413,8.533,8.533S277.187,460.8,272.067,460.8z M33.133,443.733
		c-5.12,0-8.533-3.413-8.533-8.533v-17.067c0-5.12,3.413-8.533,8.533-8.533s8.533,3.413,8.533,8.533V435.2
		C41.667,440.32,38.253,443.733,33.133,443.733z M476.867,426.667c-5.12,0-8.533-3.413-8.533-8.533v-17.067
		c0-5.12,3.413-8.533,8.533-8.533c5.12,0,8.533,3.413,8.533,8.533v17.067C485.4,423.253,481.987,426.667,476.867,426.667z
		 M33.133,392.533c-5.12,0-8.533-3.413-8.533-8.533v-17.067c0-5.12,3.413-8.533,8.533-8.533s8.533,3.413,8.533,8.533V384
		C41.667,389.12,38.253,392.533,33.133,392.533z M476.867,375.467c-5.12,0-8.533-3.413-8.533-8.533v-17.067
		c0-5.12,3.413-8.533,8.533-8.533c5.12,0,8.533,3.413,8.533,8.533v17.067C485.4,372.053,481.987,375.467,476.867,375.467z
		 M33.133,341.333c-5.12,0-8.533-3.413-8.533-8.533v-17.067c0-5.12,3.413-8.533,8.533-8.533s8.533,3.413,8.533,8.533V332.8
		C41.667,337.92,38.253,341.333,33.133,341.333z M476.867,324.267c-5.12,0-8.533-3.413-8.533-8.533v-17.067
		c0-5.12,3.413-8.533,8.533-8.533c5.12,0,8.533,3.413,8.533,8.533v17.067C485.4,320.853,481.987,324.267,476.867,324.267z
		 M459.8,290.133h-17.067v-17.067c0-5.12,3.413-8.533,8.533-8.533s8.533,3.413,8.533,8.533c5.12,0,8.533,3.413,8.533,8.533
		C468.333,286.72,464.92,290.133,459.8,290.133z M50.2,290.133H33.133c-5.12,0-8.533-3.413-8.533-8.533
		c0-5.12,3.413-8.533,8.533-8.533H50.2c5.12,0,8.533,3.413,8.533,8.533C58.733,286.72,55.32,290.133,50.2,290.133z M58.733,264.533
		c-5.12,0-8.533-3.413-8.533-8.533v-17.067c0-5.12,3.413-8.533,8.533-8.533s8.533,3.413,8.533,8.533V256
		C67.267,261.12,63.853,264.533,58.733,264.533z M451.267,247.467c-5.12,0-8.533-3.413-8.533-8.533v-17.067H459.8
		c5.12,0,8.533,3.413,8.533,8.533c0,5.12-3.413,8.533-8.533,8.533C459.8,244.053,456.387,247.467,451.267,247.467z M476.867,238.933
		c-5.12,0-8.533-3.413-8.533-8.533v-17.067c0-5.12,3.413-8.533,8.533-8.533c5.12,0,8.533,3.413,8.533,8.533V230.4
		C485.4,235.52,481.987,238.933,476.867,238.933z M33.133,238.933c-5.12,0-8.533-3.413-8.533-8.533v-17.067
		c0-5.12,3.413-8.533,8.533-8.533s8.533,3.413,8.533,8.533V230.4C41.667,235.52,38.253,238.933,33.133,238.933z M476.867,187.733
		c-5.12,0-8.533-3.413-8.533-8.533v-17.067c0-5.12,3.413-8.533,8.533-8.533c5.12,0,8.533,3.413,8.533,8.533V179.2
		C485.4,184.32,481.987,187.733,476.867,187.733z M33.133,187.733c-5.12,0-8.533-3.413-8.533-8.533v-17.067
		c0-5.12,3.413-8.533,8.533-8.533s8.533,3.413,8.533,8.533V179.2C41.667,184.32,38.253,187.733,33.133,187.733z M476.867,136.533
		c-5.12,0-8.533-3.413-8.533-8.533v-17.067c0-5.12,3.413-8.533,8.533-8.533c5.12,0,8.533,3.413,8.533,8.533V128
		C485.4,133.12,481.987,136.533,476.867,136.533z M33.133,136.533c-5.12,0-8.533-3.413-8.533-8.533v-17.067
		c0-5.12,3.413-8.533,8.533-8.533s8.533,3.413,8.533,8.533V128C41.667,133.12,38.253,136.533,33.133,136.533z M476.867,85.333
		c-5.12,0-8.533-3.413-8.533-8.533V59.733c0-5.12,3.413-8.533,8.533-8.533c5.12,0,8.533,3.413,8.533,8.533V76.8
		C485.4,81.92,481.987,85.333,476.867,85.333z M33.133,85.333c-5.12,0-8.533-3.413-8.533-8.533V59.733
		c0-5.12,3.413-8.533,8.533-8.533s8.533,3.413,8.533,8.533V76.8C41.667,81.92,38.253,85.333,33.133,85.333z M289.133,68.267h-17.067
		c-5.12,0-8.533-3.413-8.533-8.533s3.413-8.533,8.533-8.533c0-5.12,3.413-8.533,8.533-8.533s8.533,3.413,8.533,8.533V68.267z
		 M237.933,68.267h-17.067V51.2c0-5.12,3.413-8.533,8.533-8.533c5.12,0,8.533,3.413,8.533,8.533c5.12,0,8.533,3.413,8.533,8.533
		S243.053,68.267,237.933,68.267z M451.267,59.733c-5.12,0-8.533-3.413-8.533-8.533V34.133c0-5.12,3.413-8.533,8.533-8.533
		s8.533,3.413,8.533,8.533V51.2C459.8,56.32,456.387,59.733,451.267,59.733z M58.733,59.733c-5.12,0-8.533-3.413-8.533-8.533V34.133
		c0-5.12,3.413-8.533,8.533-8.533s8.533,3.413,8.533,8.533V51.2C67.267,56.32,63.853,59.733,58.733,59.733z M417.133,42.667h-17.067
		c-5.12,0-8.533-3.413-8.533-8.533s3.413-8.533,8.533-8.533h17.067c5.12,0,8.533,3.413,8.533,8.533S422.253,42.667,417.133,42.667z
		 M365.933,42.667h-17.067c-5.12,0-8.533-3.413-8.533-8.533s3.413-8.533,8.533-8.533h17.067c5.12,0,8.533,3.413,8.533,8.533
		S371.053,42.667,365.933,42.667z M314.733,42.667h-17.067c-5.12,0-8.533-3.413-8.533-8.533s3.413-8.533,8.533-8.533h17.067
		c5.12,0,8.533,3.413,8.533,8.533S319.853,42.667,314.733,42.667z M212.333,42.667h-17.067c-5.12,0-8.533-3.413-8.533-8.533
		s3.413-8.533,8.533-8.533h17.067c5.12,0,8.533,3.413,8.533,8.533S217.453,42.667,212.333,42.667z M161.133,42.667h-17.067
		c-5.12,0-8.533-3.413-8.533-8.533s3.413-8.533,8.533-8.533h17.067c5.12,0,8.533,3.413,8.533,8.533S166.253,42.667,161.133,42.667z
		 M109.933,42.667H92.867c-5.12,0-8.533-3.413-8.533-8.533s3.413-8.533,8.533-8.533h17.067c5.12,0,8.533,3.413,8.533,8.533
		S115.053,42.667,109.933,42.667z"/>
</g>
<g>
</g>
<g>
</g>
<g>
</g>
<g>
</g>
<g>
</g>
<g>
</g>
<g>
</g>
<g>
</g>
<g>
</g>
<g>
</g>
<g>
</g>
<g>
</g>
<g>
</g>
<g>
</g>
<g>
</g>
</svg>
