<?xml version="1.0" encoding="iso-8859-1"?>
<!-- Generator: Adobe Illustrator 19.0.0, SVG Export Plug-In . SVG Version: 6.00 Build 0)  -->
<svg version="1.1" id="Layer_1" xmlns="http://www.w3.org/2000/svg" xmlns:xlink="http://www.w3.org/1999/xlink" x="0px" y="0px"
	 viewBox="0 0 512 512" style="enable-background:new 0 0 512 512;" xml:space="preserve">
<g>
	<g>
		<path d="M490.667,128c11.797,0,21.333-9.557,21.333-21.333V21.333C512,9.557,502.464,0,490.667,0h-85.333
			C393.536,0,384,9.557,384,21.333v76.501L275.605,206.229c-10.112-91.179-68.693-154.773-151.275-162.688
			C115.755,18.304,92.096,0,64,0C28.715,0,0,28.715,0,64s28.715,64,64,64c27.392,0,50.624-17.387,59.755-41.621
			c76.416,9.045,110.912,78.933,110.912,148.288c0,3.605,1.109,6.827,2.688,9.813L97.835,384H21.333C9.536,384,0,393.557,0,405.333
			v85.333C0,502.443,9.536,512,21.333,512h85.333c11.797,0,21.333-9.557,21.333-21.333v-76.501l108.395-108.395
			c10.112,91.179,68.693,154.773,151.275,162.688C396.245,493.675,419.904,512,448,512c35.285,0,64-28.715,64-64
			c0-35.285-28.715-64-64-64c-27.392,0-50.624,17.387-59.755,41.621c-76.416-9.045-110.912-78.933-110.912-148.288
			c0-3.605-1.109-6.827-2.688-9.813L414.165,128H490.667z"/>
	</g>
</g>
<g>
</g>
<g>
</g>
<g>
</g>
<g>
</g>
<g>
</g>
<g>
</g>
<g>
</g>
<g>
</g>
<g>
</g>
<g>
</g>
<g>
</g>
<g>
</g>
<g>
</g>
<g>
</g>
<g>
</g>
</svg>
